<svg width="24" height="24" viewBox="0 0 24 24" fill="none" xmlns="http://www.w3.org/2000/svg">
<path d="M23 12C23 18.0751 18.0751 23 12 23C5.92487 23 1 18.0751 1 12C1 5.92487 5.92487 1 12 1C18.0751 1 23 5.92487 23 12Z" fill="#FACB71"/>
<path fill-rule="evenodd" clip-rule="evenodd" d="M12 22C17.5228 22 22 17.5228 22 12C22 6.47715 17.5228 2 12 2C6.47715 2 2 6.47715 2 12C2 17.5228 6.47715 22 12 22ZM12 23C18.0751 23 23 18.0751 23 12C23 5.92487 18.0751 1 12 1C5.92487 1 1 5.92487 1 12C1 18.0751 5.92487 23 12 23Z" fill="black"/>
<circle cx="14" cy="12" r="9" fill="#F662AD"/>
<path fill-rule="evenodd" clip-rule="evenodd" d="M14 20C18.4183 20 22 16.4183 22 12C22 7.58172 18.4183 4 14 4C9.58172 4 6 7.58172 6 12C6 16.4183 9.58172 20 14 20ZM14 21C18.9706 21 23 16.9706 23 12C23 7.02944 18.9706 3 14 3C9.02944 3 5 7.02944 5 12C5 16.9706 9.02944 21 14 21Z" fill="black"/>
<circle cx="12" cy="12" r="7" fill="#99FFE7"/>
<path fill-rule="evenodd" clip-rule="evenodd" d="M12 18C15.3137 18 18 15.3137 18 12C18 8.68629 15.3137 6 12 6C8.68629 6 6 8.68629 6 12C6 15.3137 8.68629 18 12 18ZM12 19C15.866 19 19 15.866 19 12C19 8.13401 15.866 5 12 5C8.13401 5 5 8.13401 5 12C5 15.866 8.13401 19 12 19Z" fill="black"/>
</svg>
