<svg width="12" height="12" viewBox="0 0 12 12" fill="none" xmlns="http://www.w3.org/2000/svg">
<path fill-rule="evenodd" clip-rule="evenodd" d="M11.25 7.50458C11.25 7.91903 10.9141 8.255 10.4997 8.255C10.0853 8.255 9.74939 7.91903 9.74939 7.50458V3.30417L1.79586 11.2569C1.50514 11.5477 1.03379 11.5477 0.743065 11.2569C0.452344 10.9662 0.452344 10.4948 0.743065 10.204L8.6966 2.25124H4.49687C4.08248 2.25124 3.74655 1.91527 3.74655 1.50082C3.74655 1.08638 4.08248 0.750407 4.49687 0.750407H10.4527C10.4723 0.749838 10.4917 0.749865 10.5109 0.750489C10.5851 0.751576 10.6567 0.76343 10.7242 0.784558C10.84 0.819427 10.9442 0.880704 11.032 0.968477C11.1781 1.1146 11.2508 1.30635 11.25 1.49787L11.25 7.50458Z" fill="#4F566B"/>
</svg>
