<svg width="16" height="16" viewBox="0 0 16 16" fill="none" xmlns="http://www.w3.org/2000/svg">
<path fill-rule="evenodd" clip-rule="evenodd" d="M8 16C12.4183 16 16 12.4183 16 8C16 3.58172 12.4183 0 8 0C3.58172 0 0 3.58172 0 8C0 12.4183 3.58172 16 8 16ZM7 8.0885C6.9971 8.05683 6.99567 8.02474 6.99578 7.9923C6.9977 7.43768 7.44886 6.98963 8.00347 6.99155C8.21663 6.99228 8.4251 6.94784 8.61678 6.86046C8.77658 6.78762 8.92403 6.68535 9.05469 6.55469C9.63718 5.9722 9.63718 5.0278 9.05469 4.44531C8.7679 4.15852 8.39576 4.00735 8.0028 4.00845C7.60784 4.00955 7.22683 4.16379 6.94531 4.44531C6.65184 4.73878 6.50467 5.09958 6.50852 5.4901C6.51398 6.04469 6.06883 6.49871 5.51424 6.50417C4.95965 6.50964 4.50564 6.06449 4.50017 5.5099C4.49101 4.5802 4.84992 3.70034 5.52513 3.02513C6.18686 2.36339 7.07816 2.00258 7.9972 2.00001C8.92088 1.99744 9.80722 2.35748 10.4749 3.02513C11.8417 4.39196 11.8417 6.60804 10.4749 7.97487C10.1744 8.27539 9.82802 8.5156 9.44984 8.68799C9.28011 8.76536 9.10507 8.82855 8.92636 8.87733C8.77744 9.24257 8.41878 9.5 8 9.5C7.44772 9.5 7 9.05229 7 8.5V8.0885ZM6.5 12.5C6.5 13.3284 7.17157 14 8 14C8.82843 14 9.5 13.3284 9.5 12.5C9.5 11.6716 8.82843 11 8 11C7.17157 11 6.5 11.6716 6.5 12.5Z" fill="#4F566B"/>
</svg>
