<svg width="24" height="24" viewBox="0 0 24 24" fill="none" xmlns="http://www.w3.org/2000/svg">
<rect width="24" height="24" rx="4" fill="#063667"/>
<path d="M20.8771 20.5385C20.2959 21.1204 19.3338 21.1204 18.7526 20.5385C18.472 20.2576 18.0311 20.2576 17.7505 20.5385C17.4699 20.8195 17.0691 20.98 16.6883 20.98C16.588 20.98 16.4878 20.98 16.4077 20.96H16.3877C16.1071 20.8998 15.8465 20.7593 15.6462 20.5787L15.6262 20.5587C15.3456 20.2777 14.9047 20.2777 14.6241 20.5587L14.6041 20.5787C14.0229 21.1406 13.1009 21.1406 12.5198 20.5787L12.4998 20.5587C12.2192 20.2777 11.7783 20.2777 11.4977 20.5587L11.4777 20.5787C11.1971 20.8596 10.8363 21.0002 10.4355 21.0002C10.0346 21.0002 9.67382 20.8396 9.39323 20.5787L9.37324 20.5587C9.11264 20.2978 8.63171 20.2978 8.37113 20.5587L8.35113 20.5787C8.15066 20.7593 7.93018 20.8796 7.66974 20.96H7.62961H7.60962H7.58963C7.48939 20.98 7.38915 20.98 7.30905 20.98C6.90824 20.98 6.5274 20.8195 6.24681 20.5385C5.98622 20.2776 5.50529 20.2776 5.2447 20.5385C4.66355 21.1204 3.70142 21.1204 3.12027 20.5385C2.95991 20.378 2.95991 20.1372 3.12027 19.9767C3.28062 19.8161 3.52107 19.8161 3.68145 19.9767C3.96203 20.2576 4.40297 20.2576 4.68356 19.9767C4.96414 19.6957 5.34495 19.5352 5.74579 19.5352C5.84603 19.5352 5.94627 19.5552 6.04637 19.5754C6.32695 19.6356 6.58754 19.7761 6.80801 19.9767C6.94837 20.1172 7.12871 20.1774 7.30906 20.1774C7.34918 20.1774 7.4093 20.1774 7.44942 20.1574C7.48955 20.1574 7.50954 20.1374 7.54966 20.1374C7.56965 20.1374 7.58979 20.1173 7.58979 20.1173C7.58979 20.1173 7.60978 20.1173 7.60978 20.0973C6.10604 18.7326 5.22419 16.7861 5.16406 14.6789L11.5776 11.107V17.8495C11.5776 18.0702 11.7579 18.2508 11.9784 18.2508C12.1988 18.2508 12.3792 18.0702 12.3792 17.8495V11.107L18.7927 14.6789C18.7326 16.786 17.8707 18.7525 16.3675 20.117C16.3875 20.117 16.4076 20.1371 16.4276 20.1371C16.4476 20.1371 16.4476 20.137 16.4677 20.1571C16.4877 20.1571 16.5279 20.1771 16.5478 20.1771C16.7883 20.2173 17.0088 20.1571 17.1893 19.9764C17.4097 19.7556 17.6703 19.6152 17.9509 19.5751C18.432 19.4747 18.953 19.6152 19.3338 19.9764C19.6144 20.2573 20.0554 20.2573 20.336 19.9764C20.4963 19.8158 20.7368 19.8158 20.8971 19.9764C21.0375 20.137 21.0374 20.378 20.8771 20.5385Z" fill="#39C9E9"/>
<path d="M11.798 10.0636C11.8179 10.0636 11.8381 10.0436 11.8581 10.0436H11.8781C11.9182 10.0436 11.9382 10.0236 11.9783 10.0236C12.0184 10.0236 12.0384 10.0236 12.0785 10.0436H12.0985C12.1185 10.0436 12.1387 10.0636 12.1586 10.0636H12.1786L16.5879 12.5118L16.5881 8.61884H7.36865V12.5319L11.798 10.0636Z" fill="#39C9E9"/>
<path d="M12.3791 4.80594H11.5774V3.4013C11.5774 3.18056 11.7578 3 11.9783 3C12.1987 3 12.3791 3.18057 12.3791 3.4013V4.80594ZM14.9846 5.60869H8.97192V7.81611H14.9846V5.60869Z" fill="#39C9E9"/>
</svg>
