<svg width="12" height="4" viewBox="0 0 12 4" fill="none" xmlns="http://www.w3.org/2000/svg">
<path d="M1.5 3.5C2.32843 3.5 3 2.82843 3 2C3 1.17157 2.32843 0.5 1.5 0.5C0.671573 0.5 0 1.17157 0 2C0 2.82843 0.671573 3.5 1.5 3.5Z" fill="#4F566B"/>
<path d="M6 3.5C6.82843 3.5 7.5 2.82843 7.5 2C7.5 1.17157 6.82843 0.5 6 0.5C5.17157 0.5 4.5 1.17157 4.5 2C4.5 2.82843 5.17157 3.5 6 3.5Z" fill="#4F566B"/>
<path d="M12 2C12 2.82843 11.3284 3.5 10.5 3.5C9.67157 3.5 9 2.82843 9 2C9 1.17157 9.67157 0.5 10.5 0.5C11.3284 0.5 12 1.17157 12 2Z" fill="#4F566B"/>
</svg>
