<svg width="25" height="21" viewBox="0 0 25 21" fill="none" xmlns="http://www.w3.org/2000/svg">
<path d="M14.2155 15.2975L13 14.066V10C13 7.23858 10.7614 5 8 5C5.23858 5 3 7.23858 3 10V14.066L1.78449 15.2975C1.59978 15.4847 1.49622 15.7371 1.49622 16C1.49622 16.5523 1.94393 17 2.49622 17H13.5038C13.7667 17 14.0191 16.8964 14.2062 16.7117C14.5993 16.3238 14.6035 15.6906 14.2155 15.2975Z" fill="#545969"/>
<path d="M8 21C9.20948 21 10.2184 20.1411 10.45 19H5.55001C5.78164 20.1411 6.79052 21 8 21Z" fill="#545969"/>
<circle cx="17.5" cy="7.5" r="6.25" fill="#DF1B41" stroke="#F6F8FA" stroke-width="1.5"/>
<path d="M17.4902 11H18.75V3.9541H17.4951L15.6543 5.24805V6.43457L17.4072 5.19434H17.4902V11Z" fill="white"/>
</svg>
