<svg width="16" height="16" viewBox="0 0 16 16" fill="none" xmlns="http://www.w3.org/2000/svg">
<path d="M8.1962 0H7.8038C7.70679 0 7.60982 0.00403343 7.51314 0.0120898C5.58682 0.172616 4.15536 1.86434 4.31589 3.79066L4.4801 5.76123C4.63266 7.59189 6.163 9 8 9C9.837 9 11.3673 7.59189 11.5199 5.76123L11.6841 3.79066C11.6922 3.69398 11.6962 3.59701 11.6962 3.5C11.6962 1.567 10.1292 0 8.1962 0Z" fill="#545969"/>
<path d="M11.9001 9.46256C10.8772 10.4176 9.50449 11 8 11C6.49551 11 5.12276 10.4176 4.09985 9.46256L2.34082 10.1222C0.932802 10.6502 0 11.9962 0 13.5V15C0 15.5523 0.447715 16 1 16H15C15.5523 16 16 15.5523 16 15V13.5C16 11.9962 15.0672 10.6502 13.6592 10.1222L11.9001 9.46256Z" fill="#545969"/>
</svg>
