<svg width="12" height="12" viewBox="0 0 12 12" fill="none" xmlns="http://www.w3.org/2000/svg">
<path fill-rule="evenodd" clip-rule="evenodd" d="M5.08845 10.1021L5.25375 11.9261C5.55115 11.9747 5.85608 12 6.1667 12C6.47732 12 6.78224 11.9747 7.07965 11.9261L7.24495 10.1021C7.58555 10.0065 7.90859 9.86677 8.20794 9.68913L9.5715 10.8579C10.0668 10.4858 10.5029 10.0346 10.8627 9.52221L9.73286 8.11163C9.90457 7.80195 10.0397 7.46778 10.1321 7.11543L11.8953 6.94443C11.9423 6.63677 11.9667 6.32133 11.9667 6C11.9667 5.67867 11.9423 5.36323 11.8953 5.05557L10.1321 4.88457C10.0397 4.53222 9.90457 4.19805 9.73286 3.88837L10.8627 2.47779C10.5029 1.96543 10.0668 1.51423 9.5715 1.1421L8.20794 2.31087C7.90859 2.13323 7.58555 1.99346 7.24495 1.89788L7.07965 0.0739039C6.78224 0.0252605 6.47732 0 6.1667 0C5.85608 0 5.55115 0.0252605 5.25375 0.0739039L5.08845 1.89788C4.74784 1.99346 4.42481 2.13323 4.12546 2.31087L2.76189 1.1421C2.26662 1.51423 1.83045 1.96543 1.47073 2.47779L2.60054 3.88837C2.42882 4.19805 2.29372 4.53222 2.20132 4.88457L0.43814 5.05557C0.391118 5.36323 0.366699 5.67867 0.366699 6C0.366699 6.32133 0.391118 6.63677 0.43814 6.94443L2.20132 7.11543C2.29372 7.46778 2.42882 7.80195 2.60054 8.11163L1.47073 9.52221C1.83045 10.0346 2.26662 10.4858 2.76189 10.8579L4.12546 9.68913C4.42481 9.86677 4.74784 10.0065 5.08845 10.1021ZM8.3417 6C8.3417 7.24264 7.36792 8.25 6.1667 8.25C4.96548 8.25 3.9917 7.24264 3.9917 6C3.9917 4.75736 4.96548 3.75 6.1667 3.75C7.36792 3.75 8.3417 4.75736 8.3417 6Z" fill="#8792A2"/>
</svg>
